<svg width="20" height="20" viewBox="0 0 20 20" fill="none" xmlns="http://www.w3.org/2000/svg">
<path d="M8.9415 4.22746C9.29281 4.18678 9.64618 4.16647 9.99984 4.16663C13.8865 4.16663 16.9998 6.58579 18.3332 9.99996C18.0104 10.8304 17.5743 11.6123 17.0373 12.3233M5.43317 5.43246C3.73317 6.46996 2.4165 8.07746 1.6665 9.99996C2.99984 13.4141 6.11317 15.8333 9.99984 15.8333C11.6099 15.8418 13.1908 15.4033 14.5665 14.5666M8.23317 8.23329C8.001 8.46546 7.81684 8.74108 7.69119 9.04442C7.56555 9.34776 7.50088 9.67288 7.50088 10.0012C7.50088 10.3295 7.56555 10.6547 7.69119 10.958C7.81684 11.2613 8.001 11.537 8.23317 11.7691C8.46534 12.0013 8.74096 12.1855 9.0443 12.3111C9.34764 12.4368 9.67275 12.5014 10.0011 12.5014C10.3294 12.5014 10.6545 12.4368 10.9579 12.3111C11.2612 12.1855 11.5368 12.0013 11.769 11.7691" stroke="#3D3D3D" stroke-width="1.66667" stroke-linecap="round" stroke-linejoin="round"/>
<path d="M3.33301 3.33331L16.6663 16.6666" stroke="#3D3D3D" stroke-width="1.66667" stroke-linecap="round"/>
</svg>
